# xmcd
# 
# Track frame offsets:
#     150
#     9823
#     20502
#     30258
#     40912
#     52563
#     65949
#     78063
#     90329
#     103969
#     126050
#     144060
#     154892
#     163221
#     186248
#     197445
#     214026
#     231246
#     258608
#     283752
# 
# Disc length: 4010
# 
# Revision: 6
# Processed by: cddbd v1.5.2PL0 Copyright (c) Steve Scherf et al.
# Submitted via: fre:ac v1.0.17
# 
DISCID=030fa814
DTITLE=Various Artist - Mojo Club Dancefloor Jazz Vol. 10 - Love Power
DYEAR=2001
DGENRE=Dancefloor Jazz
TTITLE0=Various Artist - Dusty Springfield - Love Power
TTITLE1=Various Artist - Esther Satterfield - Love Music
TTITLE2=Various Artist - Bobby Bloom - Fanta
TTITLE3=Various Artist - Gary Mcfarland - Bloop Bleep
TTITLE4=Various Artist - Earl Grant - House Of Bamboo
TTITLE5=Mojo Club - Manny Corchado - Chicken And Booze
TTITLE6=Mojo Club - Lou Rawls - Everywhere I Go
TTITLE7=Mojo Club - Davy Jones - Sophisticated Sissy
TTITLE8=Mojo Club - Brian Auger, Julie Driscoll and The Trinity - Break It Up
TTITLE9=Mojo Club - Rob Agerbeek Quintet - The Chair Dance
TTITLE10=Mojo Club - Eddy Louiss - Mazurka Cocadou
TTITLE11=Mojo Club - Georgie Fame - Hot Stuff
TTITLE12=Mojo Club - Nara Leao - Cacará
TTITLE13=Mojo Club - Gato Barbieri - Fiesta
TTITLE14=Mojo Club - Joao Donato - Bananeira
TTITLE15=Mojo Club - Tim Maia - I Don't Know What To Do With Myself
TTITLE16=Mojo Club - Smoked Sugar - I'm A Winner
TTITLE17=Mojo Club - Lenny Williams - Choosing You
TTITLE18=Mojo Club - Peaches and Herb - Freeway
TTITLE19=Mojo Club - Miracles - Ain't Nobody Straight In L.A.
EXTD=YEAR: 2001
EXTT0=
EXTT1=
EXTT2=
EXTT3=
EXTT4=
EXTT5=
EXTT6=
EXTT7=
EXTT8=
EXTT9=
EXTT10=
EXTT11=
EXTT12=
EXTT13=
EXTT14=
EXTT15=
EXTT16=
EXTT17=
EXTT18=
EXTT19=
PLAYORDER=
